# Blender v2.74 (sub 0) OBJ File: ''
# www.blender.org
mtllib doubleSpikeVerticle.mtl
o Cone_Cone.001
v 0.442683 -0.787912 -1.620646
v 0.247593 -0.787912 -1.601431
v 0.060000 -0.787911 -1.544526
v -0.112887 -0.787911 -1.452116
v -0.264423 -0.787912 -1.327753
v -0.388786 -0.787912 -1.176216
v -0.481196 -0.787912 -1.003330
v -0.538102 -0.787912 -0.815737
v -0.557317 -0.787912 -0.620646
v 0.442683 -2.787912 -0.620647
v -0.538102 -0.787912 -0.425556
v -0.481196 -0.787912 -0.237963
v -0.388786 -0.787912 -0.065076
v -0.264423 -0.787912 0.086461
v -0.112887 -0.787912 0.210823
v 0.060000 -0.787912 0.303233
v 0.247593 -0.787912 0.360139
v 0.442684 -0.787912 0.379354
v 0.637774 -0.787912 0.360139
v 0.825367 -0.787912 0.303233
v 0.998254 -0.787912 0.210823
v 1.149791 -0.787912 0.086460
v 1.274153 -0.787912 -0.065077
v 1.366563 -0.787912 -0.237964
v 1.423469 -0.787912 -0.425557
v 1.442683 -0.787912 -0.620647
v 1.423469 -0.787912 -0.815738
v 1.366563 -0.787912 -1.003331
v 1.274152 -0.787912 -1.176218
v 1.149789 -0.787912 -1.327754
v 0.998253 -0.787912 -1.452117
v 0.825366 -0.787912 -1.544526
v 0.637772 -0.787912 -1.601432
v 0.447585 -0.752964 -1.645415
v 0.447585 1.247036 -1.645415
v 0.642675 -0.752964 -1.626201
v 0.642675 1.247036 -1.626200
v 0.830268 -0.752964 -1.569295
v 0.830268 1.247036 -1.569295
v 1.003155 -0.752964 -1.476885
v 1.003155 1.247036 -1.476885
v 1.154692 -0.752964 -1.352522
v 1.154692 1.247036 -1.352522
v 1.279055 -0.752964 -1.200985
v 1.279054 1.247036 -1.200985
v 1.371464 -0.752964 -1.028099
v 1.371464 1.247036 -1.028099
v 1.428370 -0.752964 -0.840506
v 1.428370 1.247036 -0.840506
v 1.447585 -0.752964 -0.645415
v 1.447585 1.247036 -0.645415
v 1.428370 -0.752964 -0.450325
v 1.428370 1.247036 -0.450325
v 1.371464 -0.752964 -0.262732
v 1.371464 1.247036 -0.262732
v 1.279055 -0.752964 -0.089845
v 1.279054 1.247036 -0.089845
v 1.154692 -0.752964 0.061692
v 1.154692 1.247036 0.061692
v 1.003155 -0.752964 0.186054
v 1.003155 1.247036 0.186054
v 0.830268 -0.752964 0.278464
v 0.830268 1.247036 0.278464
v 0.642675 -0.752964 0.335370
v 0.642675 1.247036 0.335370
v 0.447585 -0.752964 0.354585
v 0.447585 1.247036 0.354585
v 0.252494 -0.752964 0.335370
v 0.252494 1.247036 0.335370
v 0.064901 -0.752964 0.278464
v 0.064901 1.247036 0.278464
v -0.107986 -0.752964 0.186054
v -0.107986 1.247036 0.186054
v -0.259522 -0.752964 0.061691
v -0.259522 1.247036 0.061691
v -0.383885 -0.752964 -0.089846
v -0.383885 1.247036 -0.089846
v -0.476295 -0.752964 -0.262733
v -0.476295 1.247036 -0.262733
v -0.533201 -0.752964 -0.450326
v -0.533200 1.247036 -0.450326
v -0.552415 -0.752964 -0.645416
v -0.552415 1.247036 -0.645416
v -0.533200 -0.752964 -0.840507
v -0.533200 1.247036 -0.840507
v -0.476294 -0.752964 -1.028100
v -0.476294 1.247036 -1.028100
v -0.383884 -0.752964 -1.200986
v -0.383884 1.247036 -1.200987
v -0.259521 -0.752964 -1.352523
v -0.259521 1.247036 -1.352523
v -0.107984 -0.752964 -1.476886
v -0.107984 1.247036 -1.476886
v 0.064903 -0.752964 -1.569295
v 0.064903 1.247036 -1.569295
v 0.252496 -0.752964 -1.626201
v 0.252496 1.247036 -1.626201
v 0.441595 1.254270 -1.681636
v 0.636685 1.254270 -1.662421
v 0.824279 1.254270 -1.605515
v 0.997165 1.254270 -1.513105
v 1.148702 1.254270 -1.388742
v 1.273065 1.254270 -1.237206
v 1.365474 1.254270 -1.064319
v 1.422380 1.254270 -0.876726
v 1.441595 1.254269 -0.681636
v 0.441595 3.254270 -0.681636
v 1.422380 1.254270 -0.486545
v 1.365475 1.254270 -0.298952
v 1.273065 1.254270 -0.126065
v 1.148702 1.254270 0.025471
v 0.997165 1.254270 0.149834
v 0.824278 1.254270 0.242244
v 0.636685 1.254270 0.299150
v 0.441595 1.254270 0.318364
v 0.246504 1.254270 0.299150
v 0.058911 1.254270 0.242244
v -0.113976 1.254269 0.149834
v -0.265512 1.254270 0.025471
v -0.389875 1.254270 -0.126066
v -0.482285 1.254270 -0.298953
v -0.539190 1.254270 -0.486546
v -0.558405 1.254270 -0.681637
v -0.539190 1.254270 -0.876727
v -0.482284 1.254270 -1.064320
v -0.389874 1.254270 -1.237207
v -0.265511 1.254269 -1.388743
v -0.113974 1.254269 -1.513106
v 0.058913 1.254269 -1.605516
v 0.246506 1.254269 -1.662421
vn 0.259900 -0.445500 -0.856700
vn -0.087800 -0.445500 -0.891000
vn 0.422000 -0.445500 -0.789600
vn 0.568000 -0.445500 -0.692100
vn 0.692100 -0.445500 -0.568000
vn 0.789600 -0.445500 -0.422000
vn 0.856700 -0.445500 -0.259900
vn 0.891000 -0.445500 -0.087800
vn 0.891000 -0.445500 0.087800
vn 0.856700 -0.445500 0.259900
vn 0.789600 -0.445500 0.422000
vn 0.692100 -0.445500 0.568000
vn 0.568000 -0.445500 0.692100
vn 0.422000 -0.445500 0.789600
vn 0.259900 -0.445500 0.856700
vn 0.087800 -0.445500 0.891000
vn -0.087800 -0.445500 0.891000
vn -0.259900 -0.445500 0.856700
vn -0.422000 -0.445500 0.789600
vn -0.568000 -0.445500 0.692100
vn -0.692100 -0.445500 0.568000
vn -0.789600 -0.445500 0.422000
vn -0.856700 -0.445500 0.259900
vn -0.891000 -0.445500 0.087800
vn -0.891000 -0.445500 -0.087800
vn -0.856700 -0.445500 -0.259900
vn -0.789600 -0.445500 -0.422000
vn -0.692100 -0.445500 -0.568000
vn -0.568000 -0.445500 -0.692100
vn -0.422000 -0.445500 -0.789600
vn 0.087800 -0.445500 -0.891000
vn -0.259900 -0.445500 -0.856700
vn 0.000000 1.000000 0.000000
vn 0.098000 0.000000 -0.995200
vn 0.290300 0.000000 -0.956900
vn 0.471400 0.000000 -0.881900
vn 0.634400 -0.000000 -0.773000
vn 0.773000 -0.000000 -0.634400
vn 0.881900 0.000000 -0.471400
vn 0.956900 0.000000 -0.290300
vn 0.995200 0.000000 -0.098000
vn 0.995200 0.000000 0.098000
vn 0.956900 -0.000000 0.290300
vn 0.881900 -0.000000 0.471400
vn 0.773000 0.000000 0.634400
vn 0.634400 -0.000000 0.773000
vn 0.471400 -0.000000 0.881900
vn 0.290300 0.000000 0.956900
vn 0.098000 -0.000000 0.995200
vn -0.098000 0.000000 0.995200
vn -0.290300 0.000000 0.956900
vn -0.471400 -0.000000 0.881900
vn -0.634400 -0.000000 0.773000
vn -0.773000 -0.000000 0.634400
vn -0.881900 -0.000000 0.471400
vn -0.956900 0.000000 0.290300
vn -0.995200 0.000000 0.098000
vn -0.995200 0.000000 -0.098000
vn -0.956900 0.000000 -0.290300
vn -0.881900 -0.000000 -0.471400
vn -0.773000 -0.000000 -0.634400
vn -0.634400 0.000000 -0.773000
vn -0.471400 0.000000 -0.881900
vn -0.098000 0.000000 -0.995200
vn -0.290300 0.000000 -0.956900
vn -0.000000 -1.000000 -0.000000
vn -0.259900 0.445500 -0.856700
vn 0.087800 0.445500 -0.891000
vn -0.422000 0.445500 -0.789600
vn -0.568000 0.445500 -0.692100
vn -0.692100 0.445500 -0.568000
vn -0.789600 0.445500 -0.422000
vn -0.856700 0.445500 -0.259900
vn -0.891000 0.445500 -0.087800
vn -0.891000 0.445500 0.087800
vn -0.856700 0.445500 0.259900
vn -0.789600 0.445500 0.422000
vn -0.692100 0.445500 0.568000
vn -0.568000 0.445500 0.692100
vn -0.422000 0.445500 0.789600
vn -0.259900 0.445500 0.856700
vn -0.087800 0.445500 0.891000
vn 0.087800 0.445500 0.891000
vn 0.259900 0.445500 0.856700
vn 0.422000 0.445500 0.789600
vn 0.568000 0.445500 0.692100
vn 0.692100 0.445500 0.568000
vn 0.789600 0.445500 0.422000
vn 0.856700 0.445500 0.259900
vn 0.891000 0.445500 0.087800
vn 0.891000 0.445500 -0.087800
vn 0.856700 0.445500 -0.259900
vn 0.789600 0.445500 -0.422000
vn 0.692100 0.445500 -0.568000
vn 0.568000 0.445500 -0.692100
vn 0.422000 0.445500 -0.789600
vn -0.087800 0.445500 -0.891000
vn 0.259900 0.445500 -0.856700
usemtl None
s off
f 32//1 10//1 33//1
f 1//2 10//2 2//2
f 31//3 10//3 32//3
f 30//4 10//4 31//4
f 29//5 10//5 30//5
f 28//6 10//6 29//6
f 27//7 10//7 28//7
f 26//8 10//8 27//8
f 25//9 10//9 26//9
f 24//10 10//10 25//10
f 23//11 10//11 24//11
f 22//12 10//12 23//12
f 21//13 10//13 22//13
f 20//14 10//14 21//14
f 19//15 10//15 20//15
f 18//16 10//16 19//16
f 17//17 10//17 18//17
f 16//18 10//18 17//18
f 15//19 10//19 16//19
f 14//20 10//20 15//20
f 13//21 10//21 14//21
f 12//22 10//22 13//22
f 11//23 10//23 12//23
f 9//24 10//24 11//24
f 8//25 10//25 9//25
f 7//26 10//26 8//26
f 6//27 10//27 7//27
f 5//28 10//28 6//28
f 4//29 10//29 5//29
f 3//30 10//30 4//30
f 33//31 10//31 1//31
f 2//32 10//32 3//32
f 1//33 2//33 3//33 4//33 5//33 6//33 7//33 8//33 9//33 11//33 12//33 13//33 14//33 15//33 16//33 17//33 18//33 19//33 20//33 21//33 22//33 23//33 24//33 25//33 26//33 27//33 28//33 29//33 30//33 31//33 32//33 33//33
f 34//34 35//34 37//34 36//34
f 36//35 37//35 39//35 38//35
f 38//36 39//36 41//36 40//36
f 40//37 41//37 43//37 42//37
f 42//38 43//38 45//38 44//38
f 44//39 45//39 47//39 46//39
f 46//40 47//40 49//40 48//40
f 48//41 49//41 51//41 50//41
f 50//42 51//42 53//42 52//42
f 52//43 53//43 55//43 54//43
f 54//44 55//44 57//44 56//44
f 56//45 57//45 59//45 58//45
f 58//46 59//46 61//46 60//46
f 60//47 61//47 63//47 62//47
f 62//48 63//48 65//48 64//48
f 64//49 65//49 67//49 66//49
f 66//50 67//50 69//50 68//50
f 68//51 69//51 71//51 70//51
f 70//52 71//52 73//52 72//52
f 72//53 73//53 75//53 74//53
f 74//54 75//54 77//54 76//54
f 76//55 77//55 79//55 78//55
f 78//56 79//56 81//56 80//56
f 80//57 81//57 83//57 82//57
f 82//58 83//58 85//58 84//58
f 84//59 85//59 87//59 86//59
f 86//60 87//60 89//60 88//60
f 88//61 89//61 91//61 90//61
f 90//62 91//62 93//62 92//62
f 92//63 93//63 95//63 94//63
f 37//33 35//33 97//33 95//33 93//33 91//33 89//33 87//33 85//33 83//33 81//33 79//33 77//33 75//33 73//33 71//33 69//33 67//33 65//33 63//33 61//33 59//33 57//33 55//33 53//33 51//33 49//33 47//33 45//33 43//33 41//33 39//33
f 96//64 97//64 35//64 34//64
f 94//65 95//65 97//65 96//65
f 34//66 36//66 38//66 40//66 42//66 44//66 46//66 48//66 50//66 52//66 54//66 56//66 58//66 60//66 62//66 64//66 66//66 68//66 70//66 72//66 74//66 76//66 78//66 80//66 82//66 84//66 86//66 88//66 90//66 92//66 94//66 96//66
f 129//67 107//67 130//67
f 98//68 107//68 99//68
f 128//69 107//69 129//69
f 127//70 107//70 128//70
f 126//71 107//71 127//71
f 125//72 107//72 126//72
f 124//73 107//73 125//73
f 123//74 107//74 124//74
f 122//75 107//75 123//75
f 121//76 107//76 122//76
f 120//77 107//77 121//77
f 119//78 107//78 120//78
f 118//79 107//79 119//79
f 117//80 107//80 118//80
f 116//81 107//81 117//81
f 115//82 107//82 116//82
f 114//83 107//83 115//83
f 113//84 107//84 114//84
f 112//85 107//85 113//85
f 111//86 107//86 112//86
f 110//87 107//87 111//87
f 109//88 107//88 110//88
f 108//89 107//89 109//89
f 106//90 107//90 108//90
f 105//91 107//91 106//91
f 104//92 107//92 105//92
f 103//93 107//93 104//93
f 102//94 107//94 103//94
f 101//95 107//95 102//95
f 100//96 107//96 101//96
f 130//97 107//97 98//97
f 99//98 107//98 100//98
f 98//66 99//66 100//66 101//66 102//66 103//66 104//66 105//66 106//66 108//66 109//66 110//66 111//66 112//66 113//66 114//66 115//66 116//66 117//66 118//66 119//66 120//66 121//66 122//66 123//66 124//66 125//66 126//66 127//66 128//66 129//66 130//66
